<?xml version="1.0" encoding="UTF-8"?>
<!DOCTYPE svg PUBLIC "-//W3C//DTD SVG 1.1//EN" "http://www.w3.org/Graphics/SVG/1.1/DTD/svg11.dtd">
<!-- Creator: CorelDRAW -->
<svg xmlns="http://www.w3.org/2000/svg" xml:space="preserve" width="146.403mm" height="145.344mm" version="1.1" style="shape-rendering:geometricPrecision; text-rendering:geometricPrecision; image-rendering:optimizeQuality; fill-rule:evenodd; clip-rule:evenodd"
viewBox="0 0 14640.28 14534.44"
 xmlns:xlink="http://www.w3.org/1999/xlink"
 xmlns:xodm="http://www.corel.com/coreldraw/odm/2003">
 <defs>
  <style type="text/css">
   <![CDATA[
    .fil2 {fill:#F5A669;fill-rule:nonzero}
    .fil1 {fill:#E19973;fill-rule:nonzero}
    .fil0 {fill:#2B2E56;fill-rule:nonzero}
   ]]>
  </style>
 </defs>
 <g id="Слой_x0020_1">
  <metadata id="CorelCorpID_0Corel-Layer"/>
  <path class="fil0" d="M4255.43 11849.84c0,174.06 -70.94,196.36 -132.71,196.36 -65.73,0 -153.18,-20.36 -153.18,-196.36l0 -185.38c0,-80.97 -8.25,-153.04 -8.61,-156.07l-2.29 -19.76 -109.54 0.07 7.37 28.01c0.11,0.46 12.42,48.54 12.42,147.71l-0.28 185.42c0,168.42 84.42,257.42 244.02,257.42 163.76,0 243.38,-84.21 243.38,-257.42l0 -361.21 -100.58 0 0 361.21z"/>
  <path class="fil0" d="M5090.62 11897.32c-59.94,-86.39 -151.24,-218.26 -184.37,-267.37 -46.88,-69.49 -94.96,-131.97 -95.46,-132.61l-6.7 -8.71 -73.24 0 -28.93 2.93 8.65 28.75c2.18,4.9 21.52,50.45 21.52,144.15l0 250.54c0,84.17 -13.34,148.27 -13.44,148.91l-5.72 26.95 111.06 0 -5.72 -26.99c-0.11,-0.63 -13.51,-64.7 -13.51,-148.87l0 -249.7c24.55,32.81 44.1,59.97 58.42,81.18l238.05 344.41 61.78 0 0 -426.4c0,-91.3 13.51,-147.57 13.65,-148.13l6.77 -27.69 -92.81 0 0 408.65z"/>
  <path class="fil0" d="M5634.09 11488.62l-108.2 0.04 6.18 27.23c0.1,0.57 12.66,57.01 12.66,148.52l0 426.41 100.86 0 0 -426.16c0,-82.48 -6.21,-137.09 -8.89,-156.7l-2.61 -19.34z"/>
  <path class="fil0" d="M6446.1 11515.55c0.03,0.18 3.07,15.91 -0.29,41.91 -3.17,24.98 -11.28,51.79 -26.31,86.96 -66.04,154.16 -105.8,246.42 -129.3,300.71 -34.39,-78.71 -98.91,-227.12 -125.66,-289.42 -33.65,-78.53 -49,-138.08 -49.81,-145.87l-1.16 -21.14 -134.94 0 14.85 31.83c0.04,0.07 35.39,75.56 67.56,149.15 6.07,13.83 31.43,72.6 61.91,143.19 44.24,102.48 99.24,229.84 121.57,281.1l5.86 13.37 48.68 0 189.44 -445.39c40.25,-94.4 63.85,-140.19 64.1,-140.65l16.86 -32.6 -128.66 0.18 5.3 26.67z"/>
  <path class="fil0" d="M7244.12 12013.24l-2.47 -29.56 -27.76 10.55c-0.92,0.39 -94.05,35.42 -184.08,35.42l-59.98 0 0 -201.05 164.33 0 9.95 -61.21 -174.28 0 0 -102.73c0,-50.55 -2.15,-87.17 -4.62,-114.76l49.78 0c89.61,0 169.93,32.71 170.71,33.06l27.83 11.5 2.93 -29.95c2.89,-29.49 0.07,-54.96 -0.03,-56.06l-2.23 -19.79 -365.65 0.14 6.84 27.7c0.14,0.53 13.62,56.12 13.62,147.95l0 426.44 373.7 0 1.69 -20.53c2.22,-26.6 -0.18,-55.88 -0.28,-57.12z"/>
  <path class="fil0" d="M7727.42 11848.87l-0.07 0c-27.8,0 -49,-8.89 -60.08,-14.85l0.25 -169.33c0,-54.79 -3.46,-102.24 -5.82,-128.2 11.36,-1.59 26.95,-3.18 44.52,-3.18 97.51,0 163.02,64.14 163.02,159.6 0,42.05 -14.47,81.32 -40.75,110.56 -26.28,29.28 -62.19,45.4 -101.07,45.4zm244.26 159.56c-11.11,-10.08 -23.39,-28.54 -35.24,-46.42 -7.27,-10.94 -14.57,-21.84 -21.87,-31.57 -15.91,-21.03 -32.77,-37.96 -50.55,-50.66 68.29,-37.61 110.2,-107.35 110.2,-188.6 0,-120.75 -93.91,-212.79 -219.95,-218.05l0 -0.95 -10.73 0 0 0.17c-66.46,0.67 -127.42,5.51 -171.84,13.73l-18.27 6.35 0 18.59 0.74 5.71c0.14,0.5 12.49,48.58 12.49,147.75l0 426.4 100.58 0 0 -189.87c19.51,4.17 46.88,8.47 76.3,8.47 23.32,0 37.26,5.64 49.74,20.14 12.07,14.04 22.12,30.13 32.81,47.17 19.05,30.41 40.64,64.88 79.31,96.7 26.17,21.48 61.52,33.83 96.94,33.86 28.33,0 54.58,-6.81 75.88,-19.61l10.8 -9.74 0 -35.49 -22.86 0.53c-0.53,0.14 -55.11,1.06 -94.48,-34.61z"/>
  <path class="fil0" d="M8604.84 11737.58c-76.2,-31.01 -123.44,-60.61 -123.44,-112.01 0,-52.56 49.28,-92.18 114.58,-92.18 40.71,0 66.68,12.14 92.53,43.36l34.19 41.1 5.26 -53.2c2.89,-29.42 0.07,-54.97 -0.04,-56.02l-1.66 -14.61 -14.04 -4.27c-17.36,-5.25 -63.39,-17.46 -116.24,-17.46 -147.85,0 -215.16,79.45 -215.16,153.32 0,90.77 45.23,147.92 151.2,191.1l9.32 3.81c63.28,25.57 142.06,57.5 142.06,123.68 0,33.3 -28.15,102.06 -115.15,102.06 -45.05,0 -93.24,-20.71 -151.59,-65.23l-32.52 -24.8 -3.28 40.75c-0.11,1.23 -2.44,30.41 -0.29,57.04l0.96 11.68 10.12 5.82c30.73,17.85 97.23,35.84 176.53,35.84 148.27,0 215.8,-89.32 215.8,-172.33 0,-124.5 -93,-162.38 -179.14,-197.45z"/>
  <path class="fil0" d="M9212.37 11488.62l-108.16 0.04 6.17 27.27c0.14,0.56 12.67,56.97 12.67,148.48l0 426.41 100.82 0 0 -426.16c0,-83.11 -6.17,-137.3 -8.85,-156.74l-2.65 -19.3z"/>
  <path class="fil0" d="M9996.96 11488.71l-425.8 -0.04 -2.44 19.55c-0.14,0.98 -3.03,24.62 -0.07,54.25l2.79 28.16 26.74 -9.25c0.71,-0.24 67.27,-23.03 135.57,-27.51l-0.21 537.35 100.79 -0.39 0 -537c71.86,4.27 134.44,27.17 135.15,27.41l27.13 10.06 2.85 -28.79c2.97,-29.63 0.04,-53.27 -0.07,-54.26l-2.43 -19.54z"/>
  <path class="fil0" d="M10688.43 11488.97l-0.43 21.88c0,0.45 -1.48,47.27 -48.12,143.93 -13.54,28.11 -54.29,113.03 -79.34,165.38l-80.08 -165.35c-39.58,-81.7 -53.76,-131.65 -55.74,-146.65l-2.54 -19.43 -134.86 0 16.68 32.52c0,0 41.07,80.19 75.22,152.75l115.46 246.03 0 170.85 100.82 0 0 -170.92 112.75 -246.13c20.32,-44.24 36.87,-78.53 49.81,-103.19 16.44,-31.29 26.5,-46.74 26.89,-47.31l22.71 -34.6 -119.23 0.24z"/>
  <path class="fil0" d="M3383.83 10175.74c-0.21,-0.04 -0.45,-0.04 -0.7,-0.07 -561.41,-78.39 -861.06,-711.73 -861.06,-711.73 0,0 -79.98,226.02 -79.98,556.36 0,0 138.19,137.13 377.58,256.44 187.22,-35.85 375.29,-69.57 564.16,-101z"/>
  <path class="fil0" d="M6954.62 7250.61c-563.25,0 -951.34,90.98 -951.34,90.98 0,0 137.37,260.64 137.37,788.85l0 1293.46c0,371.62 -97.61,458.05 -97.61,458.05l6.31 2.92c174.31,-9.2 349.18,-16.33 524.55,-21.76 0,-0.07 0,-0.18 0,-0.25l0 -1683.31c0,-345.94 -43.85,-573.76 -79.94,-635.36 0,0 167.74,-36.51 449.37,-36.51 729.12,0 1283.61,341.38 1283.61,1180.68 0,624.45 -426.12,1026.86 -898.56,1157.92l0 4.9c176.46,0 352.36,2.12 527.86,5.93 0.15,-0.07 0.32,-0.14 0.5,-0.21 454.2,-172.72 796.75,-580.67 796.75,-1152.17 0,-922.52 -799.89,-1454.12 -1698.87,-1454.12z"/>
  <path class="fil0" d="M10433.75 9467.07l0.74 -2185.96c-172.54,-3.45 -345.58,-6.66 -519.15,-9.56 14.25,55 85.94,359.91 85.94,927.14l0 1064.72c0,321.06 73.48,571.67 198.47,758.86 182.63,21.87 364.63,45.82 545.85,71.82 -187.43,-117.61 -311.85,-334.11 -311.85,-627.02z"/>
  <path class="fil0" d="M11781.43 7314.19l0 2152.86c0,386.15 -216.04,639.73 -507.96,708.63 165.02,27.48 329.35,56.79 493.11,87.63 271.85,-191.99 448.1,-525.47 448.1,-999.88l0 -1935.9c-144.04,-4.63 -288.4,-9.11 -433.25,-13.34z"/>
  <path class="fil0" d="M3694.5 8662.16c-503.98,-246.81 -707.5,-380.76 -707.5,-653.21 0,-251.95 245.78,-453.91 607.06,-453.91 568.19,0 780.73,423.61 780.73,423.61 0,-301.24 -68.47,-513.29 -68.47,-513.29 0,0 -210.93,-168.81 -712.26,-168.81 -530.82,0 -990.14,328.93 -990.14,783.98 0,455.05 296.3,701.75 803.95,943.22 507.64,241.45 773.71,409.44 773.71,675.08 0,173.43 -87.14,309.32 -273.37,395.46 -0.28,0.15 -0.6,0.25 -0.88,0.39 180.06,-25.86 360.71,-49.95 542.15,-71.75 90.48,-128.98 140.93,-277.99 140.93,-433.99 0,-443.05 -390.74,-679.38 -895.91,-926.78z"/>
  <path class="fil1" d="M6481.17 10501.86c-0.67,17.53 -0.98,46.04 -0.98,52.56l0 314.05 59.62 0 -0.18 -314.05c0,-82.34 1.62,-114.09 1.62,-114.83l0 -9.59 -16.01 -0.18 -2.44 2.12c-0.28,0.21 -26.74,23.03 -67.7,54.82l-3.31 2.54 0 17.11 8.53 0c2.47,0 9.46,-1.52 20.85,-4.55z"/>
  <path class="fil1" d="M6888.78 10676.58c-22.93,-22.72 -35.03,-57.64 -35.03,-100.93 0,-79.94 38.41,-127.67 102.79,-127.67 64.53,0 103.02,57.82 103.02,154.7 -0.07,53.12 -48.23,100.11 -103.05,100.61 -26.32,-0.32 -49.92,-9.03 -67.73,-26.71zm67.8 56.2c43.92,0 69.71,-10.2 87.67,-21.63 -31.01,92.78 -112.22,141.19 -181.9,141.19l-8.53 0 0 8.53c0,7.59 0.88,13.76 0.88,13.76l1.06 7.34 7.4 0c142.77,0 258.94,-125.31 258.94,-279.26 0,-110.21 -66.53,-184.26 -165.56,-184.26 -94.33,0 -165.52,67.6 -165.52,157.2 0,78.07 56.87,157.13 165.56,157.13z"/>
  <path class="fil1" d="M7524.64 10703.27c-26.1,0 -49.14,-9.2 -66.78,-26.7 -22.93,-22.69 -35.03,-57.61 -35.03,-100.9 0,-79.97 38.42,-127.7 102.8,-127.7 64.52,0 103.01,57.85 103.01,154.73 -0.07,53.09 -48.22,100.08 -103.08,100.57l-0.92 0zm1.03 29.5c43.92,0 69.71,-10.2 87.66,-21.63 -31.01,92.82 -112.22,141.22 -181.89,141.22l-8.54 0 0 8.53c0,7.59 0.88,13.73 0.88,13.73l1.06 7.34 7.41 0c142.77,0 258.94,-125.28 258.94,-279.26 0,-110.21 -66.53,-184.26 -165.56,-184.26 -94.33,0 -165.52,67.59 -165.52,157.23 0,78.07 56.87,157.1 165.56,157.1z"/>
  <path class="fil1" d="M7991.68 10697.72c0.1,-53.13 48.29,-100.12 103.11,-100.58l0.96 0c26.07,0 49.14,9.21 66.74,26.67 22.9,22.72 35.03,57.61 35.03,100.93 0,79.97 -38.42,127.71 -102.76,127.71l-0.04 0c-64.52,0 -103.04,-57.86 -103.04,-154.73zm103.04 -130.04c-43.92,0 -69.74,10.2 -87.63,21.63 30.94,-92.82 112.19,-141.22 181.86,-141.22l8.85 0 -0.31 -8.82c-0.29,-8.01 -0.85,-13.23 -0.85,-13.23l-0.88 -7.58 -7.62 0c-142.77,0 -258.94,125.3 -258.94,279.26 0,110.2 66.53,184.25 165.56,184.25 94.37,0 165.52,-67.59 165.52,-157.19 0,-78.07 -56.87,-157.1 -165.56,-157.1z"/>
  <path class="fil1" d="M3849.11 10880.16c730.53,-97.93 1465.61,-160.9 2201.72,-193.53l-2.83 -52.85c-735.96,47.2 -1470.13,124.67 -2198.89,237l0 9.38z"/>
  <path class="fil1" d="M10807.66 10880.16c-730.53,-97.93 -1465.62,-160.9 -2201.72,-193.53l2.82 -52.85c735.96,47.2 1470.13,124.67 2198.9,237l0 9.38z"/>
  <polygon class="fil2" points="7328.39,3810.84 7530.14,3461.41 7328.39,3111.95 7126.63,3461.41 "/>
  <path class="fil0" d="M7214.46 5235.85c19.93,19.37 42.61,41.77 65.83,64.84 -24.52,24.52 -47.91,47.8 -67.1,66.93 -22.97,-22.97 -45.37,-45.37 -65.13,-65.13 18.91,-19.01 42.02,-42.19 66.4,-66.64zm113.91 -113.73c19.54,19.4 42.09,41.91 65.3,65.08 -19.55,19.62 -42.09,42.2 -65.3,65.41 -23.21,-23.21 -45.72,-45.79 -65.26,-65.41 23.21,-23.17 45.75,-45.68 65.26,-65.08zm0 360.68c-19.37,-19.37 -42.26,-42.27 -66.29,-66.29 18.95,-19.65 41.98,-43.11 66.29,-67.63 24.34,24.52 47.34,47.98 66.29,67.63 -23.99,24.02 -46.92,46.92 -66.29,66.29zm180.3 -180.31c-19.72,19.76 -42.12,42.16 -65.08,65.13 -19.23,-19.13 -42.58,-42.41 -67.14,-66.93 23.22,-23.07 45.93,-45.47 65.87,-64.84 24.37,24.45 47.48,47.63 66.35,66.64zm712.37 -605.08c-215.09,162.03 -438.68,331.43 -653.66,546.42 -2.44,2.43 -5.3,5.29 -8.44,8.43 -18.66,-18.59 -41.38,-41.24 -65.36,-65.2 1.55,-1.37 2.99,-2.71 4.33,-3.91 414.09,-369.25 581.21,-521.69 659.06,-599.51 348.2,-347.91 643.05,-751.63 643.05,-1122.22 0,-207.54 -99.66,-435.23 -177.27,-512.8 0,0 13.4,67.94 13.4,163.33 0,349.47 0,704.25 -549.03,1347.62 -76.62,89.74 -251.53,278.02 -641.8,675.53 -0.57,0.56 -1.24,1.27 -1.87,1.87 -23.01,-23.04 -45.3,-45.4 -64.6,-64.77 0.11,-0.11 0.25,-0.28 0.39,-0.39 231.46,-226.24 459.6,-469.55 641.39,-730.35 366.25,-525.47 451.66,-880.04 451.66,-1229.51 0,-423.12 -245.92,-703.12 -334.23,-703.12 70.1,200.98 102.28,456.6 102.28,703.12 0,349.47 -82.77,716.43 -300.92,1085.25 -174.38,294.82 -372.11,581.31 -611.05,824.13 -238.9,-242.82 -436.67,-529.31 -611.01,-824.13 -218.16,-368.82 -300.92,-735.78 -300.92,-1085.25 0,-246.52 32.14,-502.14 102.23,-703.12 -88.3,0 -334.18,280 -334.18,703.12 0,349.47 85.4,704.04 451.66,1229.51 181.79,260.8 409.93,504.11 641.38,730.35 0.11,0.11 0.29,0.28 0.39,0.39 -19.29,19.37 -41.63,41.73 -64.63,64.77 -0.6,-0.6 -1.27,-1.31 -1.83,-1.87 -390.31,-397.51 -565.22,-585.79 -641.81,-675.53 -549.03,-643.37 -549.03,-998.15 -549.03,-1347.62 0,-95.39 13.37,-163.33 13.37,-163.33 -77.57,77.57 -177.27,305.26 -177.27,512.8 0,370.59 294.89,774.31 643.04,1122.22 77.9,77.82 245.01,230.26 659.1,599.51 1.3,1.2 2.79,2.54 4.34,3.91 -23.99,23.96 -46.71,46.61 -65.37,65.2 -3.14,-3.14 -6,-6 -8.43,-8.43 -214.99,-214.99 -438.58,-384.39 -653.66,-546.42 -251.25,-189.27 -415.12,-382.34 -579.02,-689.15 0,306.81 163.9,591.82 516.47,800.2 182.67,107.95 383.4,231.6 663.36,479.57 2.15,1.9 6.56,6.1 12.74,12.06 -139.88,136.03 -293.9,258.62 -455.4,371.2 17.81,34.39 37.95,67.34 60.22,98.74 155.64,-131.2 304.44,-274.5 446.54,-419.42 19.51,19.3 41.81,41.49 64.67,64.31 -196.85,193.18 -341.71,332.85 -448.39,433.6 25.97,28.58 53.91,55.25 83.54,79.98 93.74,-102.8 225.67,-249.7 415.68,-462.71 23.57,23.6 45.86,46.08 64.42,64.88 -150.29,150.67 -278.27,305.5 -397.16,458.65 29,18.69 59.13,35.8 90.45,50.87 85.73,-131.31 193.92,-279.05 354.19,-460.03 0.11,-0.1 0.25,-0.24 0.32,-0.35 0.11,0.11 0.25,0.25 0.32,0.35 160.3,180.98 268.46,328.72 354.22,460.03 31.33,-15.07 61.42,-32.18 90.45,-50.87 -118.88,-153.15 -246.87,-307.98 -397.15,-458.65 18.52,-18.8 40.85,-41.28 64.41,-64.88 190.01,213.01 321.95,359.91 415.68,462.71 29.63,-24.73 57.57,-51.4 83.5,-79.98 -106.68,-100.75 -251.49,-240.42 -448.34,-433.6 22.86,-22.82 45.12,-45.01 64.63,-64.31 142.13,144.92 290.93,288.22 446.54,419.42 22.26,-31.4 42.41,-64.35 60.22,-98.74 -161.46,-112.58 -315.49,-235.17 -455.36,-371.2 6.14,-5.96 10.58,-10.16 12.73,-12.06 279.97,-247.97 480.66,-371.62 663.33,-479.57 352.6,-208.38 516.47,-493.39 516.47,-800.2 -163.87,306.81 -327.73,499.88 -578.98,689.15z"/>
 </g>
</svg>
